<svg width="33" height="35" viewBox="0 0 33 35" fill="none" xmlns="http://www.w3.org/2000/svg">
<path d="M0.312226 17.6374C8.34973 19.8698 24.4247 26.0646 24.4247 32.9849C24.4247 39.9052 8.34973 25.6367 0.312226 17.6374Z" fill="#F37786"/>
<path d="M0.312168 17.1244C8.34967 14.9254 24.4247 8.82301 24.4247 2.00598C24.4247 -4.81106 8.34967 9.2445 0.312168 17.1244Z" fill="#F37786"/>
<circle cx="15.3185" cy="17.7656" r="1.15432" transform="rotate(180 15.3185 17.7656)" fill="#F37786"/>
<circle cx="11.9834" cy="17.7657" r="0.64129" transform="rotate(180 11.9834 17.7657)" fill="#F37786"/>
<circle cx="9.41845" cy="17.7656" r="0.384774" transform="rotate(180 9.41845 17.7656)" fill="#F37786"/>
<path d="M26.3485 33.4131C26.3913 30.7624 24.8864 25.0763 18.5248 23.5372" stroke="#F37786"/>
<path d="M26.2195 1.34863C26.2616 3.9993 24.7815 9.68541 18.5249 11.2245" stroke="#F37786"/>
</svg>
